# Simple cube

# Vertices
v -1.0 -1.0  1.0    # Vertex 0
v  1.0 -1.0  1.0    # Vertex 1
v  1.0  1.0  1.0    # Vertex 2
v -1.0  1.0  1.0    # Vertex 3
v -1.0 -1.0 -1.0    # Vertex 4
v  1.0 -1.0 -1.0    # Vertex 5
v  1.0  1.0 -1.0    # Vertex 6
v -1.0  1.0 -1.0    # Vertex 7

# Texture coordinates
vt 0.0 0.0           # Texture coordinate 0
vt 1.0 0.0           # Texture coordinate 1
vt 1.0 1.0           # Texture coordinate 2
vt 0.0 1.0           # Texture coordinate 3

# Normals
vn  0.0  0.0  1.0    # Normal 0 (front)
vn  1.0  0.0  0.0    # Normal 1 (right)
vn  0.0  0.0 -1.0    # Normal 2 (back)
vn -1.0  0.0  0.0    # Normal 3 (left)
vn  0.0  1.0  0.0    # Normal 4 (top)
vn  0.0 -1.0  0.0    # Normal 5 (bottom)

# Faces (front)
f 1/1/1 2/2/1 3/3/1
f 1/1/1 3/3/1 4/4/1

# Faces (right)
f 2/1/2 6/2/2 7/3/2
f 2/1/2 7/3/2 3/4/2

# Faces (back)
f 6/1/3 5/2/3 8/3/3
f 6/1/3 8/3/3 7/4/3

# Faces (left)
f 5/1/4 1/2/4 4/3/4
f 5/1/4 4/3/4 8/4/4

# Faces (top)
f 4/1/5 3/2/5 7/3/5
f 4/1/5 7/3/5 8/4/5

# Faces (bottom)
f 5/1/6 6/2/6 2/3/6
f 5/1/6 2/3/6 1/4/6 